<svg width="1018" height="207" viewBox="0 0 1018 207" fill="none" xmlns="http://www.w3.org/2000/svg">
<g clip-path="url(#clip0)">
<path d="M245.301 153.2C243.801 153.2 242.801 152.4 242.801 150.7V138.5C242.801 137.2 243.201 136.3 244.101 135.4L267.101 112.3C282.401 97.0003 289.401 89.4003 289.401 81.3003C289.401 76.0003 286.201 71.2003 277.501 71.2003C269.201 71.2003 263.201 75.5003 257.701 80.9003C256.601 82.2003 255.301 82.0003 254.301 80.8003L245.601 69.2003C244.801 67.9003 244.801 66.8003 245.701 65.7003C253.401 57.9003 263.601 51.3003 278.201 51.3003C297.801 51.3003 311.101 61.8003 311.101 80.9003C311.101 92.4003 305.601 100.9 295.301 112.9C289.301 119.8 282.001 127.1 274.601 133.8H310.301C312.001 133.8 312.801 134.6 312.801 136.2V150.9C312.801 152.6 312.001 153.4 310.301 153.4H245.301V153.2Z" fill="black"/>
<path d="M366.5 155C342.7 155 326 142 326 117.6V88.3002C326 64.0002 342.5 51.2002 366.4 51.2002C378.3 51.2002 390.8 54.6002 400 60.3002C401.4 61.3002 401.5 62.5002 400.7 63.8002L391.3 77.3002C390.3 78.7002 389.2 78.7002 387.9 77.9002C381.9 74.4002 374.4 72.6002 366.2 72.6002C355.5 72.6002 348.8 78.3002 348.8 89.1002V117C348.8 128.2 355.8 133.7 366.5 133.7C372.5 133.7 378.1 132.2 382.1 129.8V113.7H367.1C365.6 113.7 364.7 112.9 364.7 111.2V97.3002C364.7 95.8002 365.5 94.9002 367.1 94.9002H401.2C402.7 94.9002 403.6 95.7002 403.6 97.3002V137.7C403.6 139 403.3 139.8 402.6 140.5C394 149.1 381.1 155 366.5 155Z" fill="black"/>
<path d="M412.401 153.2C410.601 153.2 409.901 152.1 410.401 150.4L442.901 54.8999C443.501 53.5999 444.301 52.8999 445.601 52.8999H466.901C468.201 52.8999 469.101 53.5999 469.601 54.8999L502.101 150.4C502.801 152.1 502.001 153.2 500.101 153.2H481.501C480.101 153.2 479.001 152.5 478.601 151.1L473.401 134H439.301L434.001 151.1C433.601 152.5 432.501 153.2 431.201 153.2H412.401ZM445.001 114.5H467.601C463.701 102.2 459.301 86.8999 456.501 77.4999H456.001C453.201 86.8999 448.801 102.2 445.001 114.5Z" fill="black"/>
<path d="M515.701 153.2C514.001 153.2 513.201 152.4 513.201 150.7V55.5C513.201 53.8 514.001 53 515.701 53H535.601C536.901 53 537.801 53.6 538.401 54.8L551.001 79.2C555.301 87.6 561.201 101.2 563.601 106.8H564.201C566.401 101.2 572.501 87.6 576.701 79.2L589.501 54.8C590.101 53.5 590.901 53 592.301 53H612.201C613.701 53 614.601 53.8 614.601 55.5V150.7C614.601 152.4 613.801 153.2 612.201 153.2H594.801C593.301 153.2 592.301 152.4 592.301 150.7V132.2C592.301 119.4 592.901 102.1 593.701 87.3L593.101 87.2C590.401 93.6 584.801 106.1 580.301 115.4L573.401 129.3C572.701 130.7 571.901 131.1 570.601 131.1H557.101C555.801 131.1 554.901 130.7 554.301 129.3L547.301 115.4C542.801 106.1 537.201 93.7 534.501 87.2L533.901 87.3C534.701 102 535.301 119.4 535.301 132.2V150.7C535.301 152.4 534.501 153.2 532.801 153.2H515.701Z" fill="black"/>
<path d="M657.801 132.9H699.401C700.901 132.9 701.901 133.7 701.901 135.3V150.7C701.901 152.4 700.901 153.2 699.401 153.2H637.701C636.001 153.2 635.201 152.4 635.201 150.7V55.5C635.201 53.8 636.001 53 637.701 53H697.101C698.801 53 699.601 53.8 699.601 55.5V70.9C699.601 72.4 698.801 73.3 697.101 73.3H657.701V92.5H692.501C694.201 92.5 695.001 93.3 695.001 94.9V110C695.001 111.5 694.201 112.4 692.501 112.4H657.701V132.9H657.801Z" fill="black"/>
<path d="M755.002 155.2C730.302 155.2 714.102 142.2 714.102 117.8V88.4001C714.102 64.0001 730.502 51.1001 754.602 51.1001C765.802 51.1001 776.602 54.5001 784.602 60.1001C786.002 60.9001 786.102 62.1001 785.302 63.3001L776.502 76.8001C775.502 78.2001 774.402 78.3001 773.002 77.5001C767.802 74.1001 761.202 72.5001 755.102 72.5001C743.302 72.5001 737.002 79.2001 737.002 89.3001V116.8C737.002 127.6 743.702 133.8 755.202 133.8C762.202 133.8 769.102 131.7 774.702 127.9C776.102 126.9 777.202 127.1 778.102 128.5L787.102 142C787.902 143.3 787.902 144.4 787.002 145.1C778.702 151 768.002 155.2 755.002 155.2Z" fill="#9498FF"/>
<path d="M836.7 154.9C811 154.9 795.9 140.2 795.9 115.1V90.8001C795.9 65.8001 811 51.1001 836.7 51.1001C862.5 51.1001 877.6 65.8001 877.6 90.8001V115.1C877.6 140.2 862.5 154.9 836.7 154.9ZM836.7 133.6C848.6 133.6 854.5 127.2 854.5 114.7V91.2001C854.5 78.9001 848.6 72.4001 836.7 72.4001C824.9 72.4001 818.9 78.8001 818.9 91.2001V114.6C818.9 127.1 824.9 133.6 836.7 133.6Z" fill="#9498FF"/>
<path d="M917.701 150.7C917.701 152.4 916.901 153.2 915.201 153.2H897.701C896.001 153.2 895.201 152.4 895.201 150.7V55.5C895.201 53.8 896.001 53 897.701 53H915.201C916.901 53 917.701 53.8 917.701 55.5V150.7Z" fill="#9498FF"/>
<path d="M941 153.2C939.3 153.2 938.5 152.4 938.5 150.7V55.5C938.5 53.8 939.3 53 941 53H959.6C960.9 53 961.8 53.6 962.4 54.7L981.2 88.2C987.1 99.4 993.1 111.2 996.2 118.2L996.6 118.1C995.6 105.5 995.1 92.3 995.1 80.7V55.5C995.1 53.8 995.9 53 997.6 53H1015C1016.5 53 1017.4 53.8 1017.4 55.5V150.7C1017.4 152.4 1016.6 153.2 1015 153.2H996.4C995.1 153.2 994.2 152.6 993.5 151.5L975.3 121.2C969.1 110.8 962.4 96.5 959 88.5L958.6 88.6C959.9 101.4 960.8 116.2 960.8 128.6V150.6C960.8 152.3 960 153.1 958.4 153.1H941V153.2Z" fill="#9498FF"/>
<path fill-rule="evenodd" clip-rule="evenodd" d="M103.2 0C46.2 0 0 46.2 0 103.2C0 160.2 46.2 206.4 103.2 206.4C160.2 206.4 206.4 160.2 206.4 103.2C206.3 46.2 160.1 0 103.2 0ZM110.8 128.6C107 129.6 108 132.6 111.4 133.5L130.6 139.6C133.5 140.5 135.2 143.7 134.2 146.6L129.4 161.9C128.5 164.8 125.3 166.5 122.4 165.5L101.6 158.9L98.5 168.7C97.7 171.2 95 172.6 92.5 171.8L75.2 166.3C72.7 165.5 71.3 162.8 72.1 160.3L75.2 150.5L55 144.2C50.9 142.9 49.5 141.2 50.8 137.2L55.4 122.7C56.4 119.5 56.3 118.1 59.5 117.1C69.7 113.7 93 111 109.6 101.9C126.4 92.7 118.1 71.7 96 73.1C89.2 73.5 83 75.5 77.3 78.5C73.8 80.3 69.9 77.1 71.1 73.3L76.4 56.7C77.3 53.9 79.5 51.8 82.3 51C92.4 48.1 101.9 48 107.8 48.3L110.9 38.4C111.7 36 114.2 34.6 116.7 35.4L134.4 41C136.8 41.8 138.2 44.3 137.4 46.7L133.6 58.6C160.2 78 158.2 116.3 110.8 128.6Z" fill="#9498FF"/>
</g>
<defs>
<clipPath id="clip0">
<rect width="1017.4" height="206.3" fill="white"/>
</clipPath>
</defs>
</svg>
